# xmcd
# 
# Track frame offsets:
#     150
#     18973
#     36514
#     53343
#     67410
#     82815
#     96053
#     109111
#     131330
#     151102
#     167490
#     185876
#     208578
#     224107
#     239845
#     255236
#     270191
#     285103
# 
# Disc length: 4026
# 
# Revision: 1
# Processed by: cddbd v1.5.2PL0 Copyright (c) Steve Scherf et al.
# Submitted via: BonkEnc v1.0.6
# 
DISCID=f40fb812
DTITLE=Direito de Viver Volume 06 - Direito de Viver Volume 06
DYEAR=2007
DGENRE=Country
TTITLE0=Um sonhador
TTITLE1=Maria, mãe de todos nós
TTITLE2=Não brinque de amor comigo
TTITLE3=Ela encastequetou
TTITLE4=Casa, comida
TTITLE5=Uma noite
TTITLE6=Caminhos da minha infância
TTITLE7=Ilumina
TTITLE8=Cura Senhor
TTITLE9=Duas vezes você
TTITLE10=Desatino
TTITLE11=Nossa Senhora Aparecida
TTITLE12=Cara boa
TTITLE13=Sair da solidão
TTITLE14=Vem brincar de amar
TTITLE15=Paixão ou Loucura
TTITLE16=Caso Marcado
TTITLE17=1000 Corações
EXTD=
EXTT0=
EXTT1=
EXTT2=
EXTT3=
EXTT4=
EXTT5=
EXTT6=
EXTT7=
EXTT8=
EXTT9=
EXTT10=
EXTT11=
EXTT12=
EXTT13=
EXTT14=
EXTT15=
EXTT16=
EXTT17=
PLAYORDER=
